<?xml version="1.0" encoding="UTF-8" standalone="no"?>
<!-- Created with Inkscape (http://www.inkscape.org/) -->

<svg
   xmlns:dc="http://purl.org/dc/elements/1.1/"
   xmlns:cc="http://creativecommons.org/ns#"
   xmlns:rdf="http://www.w3.org/1999/02/22-rdf-syntax-ns#"
   xmlns:svg="http://www.w3.org/2000/svg"
   xmlns="http://www.w3.org/2000/svg"
   xmlns:xlink="http://www.w3.org/1999/xlink"
   xmlns:sodipodi="http://sodipodi.sourceforge.net/DTD/sodipodi-0.dtd"
   xmlns:inkscape="http://www.inkscape.org/namespaces/inkscape"
   width="512"
   height="512"
   viewBox="0 0 135.46666 135.46667"
   version="1.1"
   id="svg8"
   inkscape:version="0.92.4 (5da689c313, 2019-01-14)"
   sodipodi:docname="solidbrock.svg">
  <defs
     id="defs2">
    <linearGradient
       inkscape:collect="always"
       id="linearGradient5411">
      <stop
         style="stop-color:#dbe3de;stop-opacity:1;"
         offset="0"
         id="stop5407" />
      <stop
         style="stop-color:#dbe3de;stop-opacity:0;"
         offset="1"
         id="stop5409" />
    </linearGradient>
    <inkscape:perspective
       sodipodi:type="inkscape:persp3d"
       inkscape:vp_x="11.150297 : 119.1381 : 1"
       inkscape:vp_y="0 : 1000 : 0"
       inkscape:vp_z="146.61696 : 119.1381 : 1"
       inkscape:persp3d-origin="78.883627 : 96.56032 : 1"
       id="perspective5387" />
    <linearGradient
       inkscape:collect="always"
       xlink:href="#linearGradient5411"
       id="linearGradient5413"
       x1="68.413696"
       y1="159.03868"
       x2="68.413696"
       y2="203.63986"
       gradientUnits="userSpaceOnUse"
       gradientTransform="translate(-8.2457869,-5.1837286)" />
  </defs>
  <sodipodi:namedview
     id="base"
     pagecolor="#ffffff"
     bordercolor="#666666"
     borderopacity="1.0"
     inkscape:pageopacity="0.0"
     inkscape:pageshadow="2"
     inkscape:zoom="0.49497475"
     inkscape:cx="-409.46296"
     inkscape:cy="186.94854"
     inkscape:document-units="mm"
     inkscape:current-layer="flowRoot5665"
     showgrid="false"
     units="px"
     inkscape:pagecheckerboard="true"
     inkscape:window-width="1920"
     inkscape:window-height="1017"
     inkscape:window-x="-8"
     inkscape:window-y="-8"
     inkscape:window-maximized="1" />
  <metadata
     id="metadata5">
    <rdf:RDF>
      <cc:Work
         rdf:about="">
        <dc:format>image/svg+xml</dc:format>
        <dc:type
           rdf:resource="http://purl.org/dc/dcmitype/StillImage" />
        <dc:title />
      </cc:Work>
    </rdf:RDF>
  </metadata>
  <g
     inkscape:label="Camada 1"
     inkscape:groupmode="layer"
     id="layer1"
     transform="translate(0,-161.53332)">
    <rect
       style="opacity:1;fill:#53676c;fill-opacity:1;stroke:#1c2422;stroke-width:5.01728392;stroke-linecap:round;stroke-linejoin:round;stroke-miterlimit:4;stroke-dasharray:none;stroke-opacity:1"
       id="rect5403"
       width="130.44939"
       height="130.44939"
       x="2.5086401"
       y="164.04196"
       rx="6.7048321"
       ry="6.7048321" />
    <g
       aria-label="S"
       transform="matrix(0.26458333,0,0,0.26458333,-4.2901817,133.66887)"
       style="font-style:normal;font-weight:normal;font-size:440.00006104px;line-height:1.25;font-family:sans-serif;letter-spacing:0px;word-spacing:0px;fill:#dbe3e2;fill-opacity:1;stroke:none"
       id="flowRoot5665">
      <path
         d="m 365.77933,211.2461 v 42.32423 q -24.70704,-11.81641 -46.6211,-17.61719 -21.91407,-5.80078 -42.32423,-5.80078 -35.44922,0 -54.78516,13.75 -19.1211,13.75 -19.1211,39.10157 0,21.26953 12.67579,32.22656 12.89062,10.74219 48.55469,17.40235 l 26.21094,5.37109 q 48.5547,9.23829 71.54298,32.65626 23.20313,23.20313 23.20313,62.3047 0,46.6211 -31.36719,70.6836 -31.15235,24.0625 -91.52345,24.0625 -22.77344,0 -48.5547,-5.15625 -25.56641,-5.15625 -53.06641,-15.25391 v -44.6875 q 26.42578,14.82422 51.77735,22.34375 25.35157,7.51953 49.84376,7.51953 37.16797,0 57.36329,-14.60937 20.19531,-14.60938 20.19531,-41.6797 0,-23.63281 -14.60937,-36.95313 -14.39454,-13.32031 -47.48048,-19.98047 l -26.42579,-5.15625 q -48.55469,-9.66797 -70.25391,-30.29297 -21.69922,-20.62501 -21.69922,-57.36329 0,-42.53907 29.86328,-67.03126 30.07813,-24.49219 82.71486,-24.49219 22.55859,0 45.97657,4.08203 23.41797,4.08203 47.91016,12.24609 z"
         style="font-size:440.00006104px"
         id="path823" />
    </g>
    <rect
       style="opacity:0.56800005;fill:url(#linearGradient5413);fill-opacity:1;stroke:none;stroke-width:5;stroke-linecap:round;stroke-linejoin:round;stroke-miterlimit:4;stroke-dasharray:none;stroke-opacity:1"
       id="rect5405"
       width="119.83026"
       height="37.631561"
       x="7.818202"
       y="169.72997"
       rx="10.156239"
       ry="10.156239" />
  </g>
</svg>
